<?xml version="1.0" standalone="no"?>
<!DOCTYPE svg PUBLIC "-//W3C//DTD SVG 20010904//EN"
 "http://www.w3.org/TR/2001/REC-SVG-20010904/DTD/svg10.dtd">
<svg version="1.0" xmlns="http://www.w3.org/2000/svg"
 width="214.000000pt" height="215.000000pt" viewBox="0 0 214.000000 215.000000"
 preserveAspectRatio="xMidYMid meet">

<g transform="translate(0.000000,215.000000) scale(0.100000,-0.100000)"
fill="#000000" stroke="none">
<path d="M340 1570 l0 -240 240 0 240 0 0 240 0 240 -240 0 -240 0 0 -240z
m408 2 l2 -172 -172 2 -173 3 -3 160 c-1 87 0 165 3 172 3 11 41 13 172 11
l168 -3 3 -173z"/>
<path d="M474 1667 c-2 -7 -4 -54 -2 -103 l3 -89 103 -3 103 -3 -3 103 -3 103
-98 3 c-75 2 -99 0 -103 -11z"/>
<path d="M1030 1780 l0 -30 65 0 65 0 0 30 0 30 -65 0 -65 0 0 -30z"/>
<path d="M1300 1570 l0 -240 240 0 240 0 0 240 0 240 -240 0 -240 0 0 -240z
m415 5 l0 -170 -172 -3 -173 -2 0 168 c0 93 3 172 7 176 4 3 81 5 172 4 l166
-3 0 -170z"/>
<path d="M1447 1674 c-4 -4 -7 -52 -7 -106 l0 -99 103 3 102 3 0 100 0 100
-95 3 c-53 1 -99 0 -103 -4z"/>
<path d="M890 1471 l0 -211 100 0 100 0 0 -35 0 -35 -65 0 -65 0 0 -35 c0 -33
2 -35 35 -35 32 0 35 -2 35 -30 0 -27 3 -30 30 -30 28 0 30 -3 30 -35 0 -33 2
-35 35 -35 l35 0 0 -70 0 -70 -35 0 c-33 0 -35 2 -35 35 0 32 -2 35 -29 35
-26 0 -30 4 -33 33 -3 28 -7 32 -35 35 -28 3 -32 7 -35 35 -3 28 -7 32 -33 32
-27 0 -30 -4 -33 -32 -3 -32 -2 -33 32 -33 34 0 36 -2 36 -35 0 -33 -2 -35
-35 -35 -33 0 -35 -2 -35 -35 0 -33 2 -35 36 -35 34 0 35 -1 32 -32 -3 -29 -7
-33 -35 -36 l-33 -3 0 -140 0 -139 35 0 c33 0 35 -2 35 -35 0 -33 -2 -35 -35
-35 -32 0 -35 -2 -35 -30 0 -28 3 -30 35 -30 32 0 35 2 35 30 0 28 3 30 35 30
32 0 35 -2 35 -30 0 -27 3 -30 30 -30 27 0 30 3 30 30 0 28 3 30 35 30 32 0
35 -2 35 -30 0 -28 3 -30 35 -30 32 0 35 2 35 30 l0 30 70 0 70 0 0 -30 c0
-28 3 -30 35 -30 32 0 35 2 35 30 0 28 -3 30 -35 30 -33 0 -35 2 -35 34 0 32
3 35 33 38 28 3 32 7 35 35 3 29 1 32 -30 35 -29 3 -33 7 -36 35 -3 28 -7 32
-35 35 -28 3 -32 7 -35 36 -3 29 -6 32 -38 32 -32 0 -34 -2 -34 -36 0 -34 -1
-35 -32 -32 -29 3 -33 7 -36 36 l-3 32 -65 0 -64 0 0 70 0 70 29 0 c26 0 30
-4 33 -32 3 -29 7 -33 36 -36 31 -3 32 -2 32 32 0 34 2 36 35 36 33 0 35 -2
35 -35 0 -33 2 -35 35 -35 33 0 35 2 35 35 0 33 -2 35 -35 35 l-36 0 3 68 3
67 68 3 67 3 0 -71 0 -70 35 0 c33 0 35 -2 35 -35 0 -33 -2 -35 -35 -35 -33 0
-35 -2 -35 -35 0 -33 2 -35 35 -35 33 0 35 -2 35 -35 0 -33 2 -35 35 -35 33 0
35 -2 35 -36 0 -34 1 -35 33 -32 28 3 32 7 35 35 3 28 7 32 35 35 28 3 32 7
35 36 l3 32 65 0 64 0 0 35 c0 32 -2 35 -30 35 -28 0 -30 3 -30 35 0 32 2 35
30 35 l30 0 0 70 0 70 -30 0 -30 0 0 -70 0 -70 -34 0 c-32 0 -35 3 -38 33 -3
28 -7 32 -35 35 -30 3 -33 6 -33 38 0 32 2 34 35 34 33 0 35 2 35 35 0 33 2
35 35 35 32 0 35 2 35 30 0 27 3 30 30 30 28 0 30 3 30 35 l0 35 -65 0 -65 0
0 35 0 35 -175 0 -175 0 0 -35 0 -36 -67 3 -68 3 -3 33 c-3 29 -6 32 -38 32
l-35 0 3 68 3 67 32 3 c29 3 32 1 35 -30 3 -29 7 -33 36 -36 31 -3 32 -2 32
32 0 34 -2 36 -35 36 -33 0 -35 2 -35 35 0 33 2 35 35 35 33 0 35 2 35 36 0
34 -1 35 -32 32 -29 -3 -33 -7 -36 -35 l-3 -33 -65 0 -64 0 0 35 c0 32 2 35
30 35 l30 0 0 70 0 70 -30 0 c-28 0 -30 -3 -30 -35 0 -33 -2 -35 -34 -35 -32
0 -35 3 -38 33 -3 28 -7 32 -35 35 l-33 3 0 -210z m138 -68 l-3 -68 -32 -3
-33 -3 0 70 0 71 35 0 36 0 -3 -67z m484 -245 c3 -29 7 -33 36 -36 28 -3 32
-7 32 -32 0 -25 -4 -29 -32 -32 l-33 -3 -3 -102 -3 -102 33 -3 33 -3 3 -102 3
-103 -36 0 -35 0 0 105 0 105 -35 0 -34 0 -3 68 -3 67 -33 3 c-31 3 -33 6 -30
35 3 28 7 32 36 35 28 3 32 7 32 32 0 25 -4 29 -32 32 -29 3 -33 7 -36 36 l-3
32 70 0 70 0 3 -32z m-352 -68 c0 -28 -3 -30 -35 -30 -32 0 -35 2 -35 30 0 28
3 30 35 30 32 0 35 -2 35 -30z m140 0 c0 -28 -3 -30 -35 -30 -32 0 -35 2 -35
30 0 28 3 30 35 30 32 0 35 -2 35 -30z m-270 -205 c0 -33 -2 -35 -35 -35 -33
0 -35 2 -35 35 0 33 2 35 35 35 33 0 35 -2 35 -35z m62 -277 c3 -29 7 -33 36
-36 29 -3 32 -6 32 -38 l0 -34 -65 0 -65 0 0 70 0 70 29 0 c26 0 30 -4 33 -32z
m206 -70 c-3 -29 -6 -33 -33 -33 -27 0 -30 4 -33 33 -3 31 -2 32 33 32 35 0
36 -1 33 -32z"/>
<path d="M340 1225 c0 -32 2 -35 30 -35 28 0 30 3 30 35 0 32 -2 35 -30 35
-28 0 -30 -3 -30 -35z"/>
<path d="M470 1190 l0 -70 -65 0 -65 0 0 -100 0 -100 100 0 100 0 0 35 c0 33
2 35 35 35 33 0 35 -2 35 -35 0 -33 2 -35 35 -35 33 0 35 2 35 35 0 33 2 35
35 35 33 0 35 -2 35 -35 0 -33 2 -35 36 -35 34 0 35 1 32 33 -3 28 -7 32 -35
35 -30 3 -33 6 -33 38 0 32 2 34 35 34 32 0 35 2 35 30 0 28 -3 30 -35 30 -32
0 -35 -2 -35 -30 0 -28 -3 -30 -35 -30 l-35 0 0 65 0 64 68 3 67 3 3 33 3 32
-175 0 -176 0 0 -70z m140 -100 c0 -28 3 -30 35 -30 33 0 35 -2 35 -35 0 -33
-2 -35 -35 -35 -33 0 -35 2 -35 35 0 33 -2 35 -35 35 -33 0 -35 -2 -35 -35 l0
-35 -71 0 -70 0 3 33 3 32 68 3 c67 3 67 3 67 32 0 28 3 30 35 30 32 0 35 -2
35 -30z"/>
<path d="M340 610 l0 -240 240 0 240 0 0 240 0 240 -240 0 -240 0 0 -240z
m408 -2 l-3 -173 -170 0 -170 0 -3 160 c-1 87 0 165 2 172 4 10 46 13 176 13
l170 0 -2 -172z"/>
<path d="M474 697 c-3 -8 -4 -54 -2 -103 l3 -89 100 0 100 0 3 103 3 102 -101
0 c-74 0 -102 -3 -106 -13z"/>
<path d="M1512 468 c3 -29 7 -33 36 -36 28 -3 32 -7 32 -33 l0 -29 70 0 70 0
0 30 0 30 -70 0 -70 0 0 35 c0 33 -2 35 -36 35 -34 0 -35 -1 -32 -32z"/>
</g>
</svg>
